<mxfile host="Electron" modified="2023-12-05T23:57:17.054Z" agent="Mozilla/5.0 (Windows NT 10.0; Win64; x64) AppleWebKit/537.36 (KHTML, like Gecko) draw.io/22.1.2 Chrome/114.0.5735.289 Electron/25.9.4 Safari/537.36" etag="nY6l9IND0ipTkYLu2OHQ" version="22.1.2" type="device">
  <diagram id="C5RBs43oDa-KdzZeNtuy" name="Page-1">
    <mxGraphModel dx="364" dy="614" grid="1" gridSize="10" guides="1" tooltips="1" connect="1" arrows="1" fold="1" page="1" pageScale="1" pageWidth="827" pageHeight="1169" math="0" shadow="0">
      <root>
        <mxCell id="WIyWlLk6GJQsqaUBKTNV-0" />
        <mxCell id="WIyWlLk6GJQsqaUBKTNV-1" parent="WIyWlLk6GJQsqaUBKTNV-0" />
        <mxCell id="HJL0mIwIymaXcJDnEfZH-2" style="edgeStyle=orthogonalEdgeStyle;rounded=0;orthogonalLoop=1;jettySize=auto;html=1;exitX=0.5;exitY=1;exitDx=0;exitDy=0;entryX=0.5;entryY=0;entryDx=0;entryDy=0;" edge="1" parent="WIyWlLk6GJQsqaUBKTNV-1" source="HJL0mIwIymaXcJDnEfZH-0" target="HJL0mIwIymaXcJDnEfZH-1">
          <mxGeometry relative="1" as="geometry" />
        </mxCell>
        <mxCell id="HJL0mIwIymaXcJDnEfZH-0" value="Start" style="ellipse;whiteSpace=wrap;html=1;" vertex="1" parent="WIyWlLk6GJQsqaUBKTNV-1">
          <mxGeometry x="170" y="280" width="120" height="80" as="geometry" />
        </mxCell>
        <mxCell id="HJL0mIwIymaXcJDnEfZH-4" style="edgeStyle=orthogonalEdgeStyle;rounded=0;orthogonalLoop=1;jettySize=auto;html=1;exitX=0.5;exitY=1;exitDx=0;exitDy=0;entryX=0.5;entryY=0;entryDx=0;entryDy=0;" edge="1" parent="WIyWlLk6GJQsqaUBKTNV-1" source="HJL0mIwIymaXcJDnEfZH-1" target="HJL0mIwIymaXcJDnEfZH-3">
          <mxGeometry relative="1" as="geometry" />
        </mxCell>
        <mxCell id="HJL0mIwIymaXcJDnEfZH-1" value="FILE * filePointer&lt;br&gt;char buffer[50]" style="rounded=0;whiteSpace=wrap;html=1;" vertex="1" parent="WIyWlLk6GJQsqaUBKTNV-1">
          <mxGeometry x="170" y="400" width="120" height="60" as="geometry" />
        </mxCell>
        <mxCell id="HJL0mIwIymaXcJDnEfZH-6" style="edgeStyle=orthogonalEdgeStyle;rounded=0;orthogonalLoop=1;jettySize=auto;html=1;exitX=0.5;exitY=1;exitDx=0;exitDy=0;" edge="1" parent="WIyWlLk6GJQsqaUBKTNV-1" source="HJL0mIwIymaXcJDnEfZH-3" target="HJL0mIwIymaXcJDnEfZH-5">
          <mxGeometry relative="1" as="geometry" />
        </mxCell>
        <mxCell id="HJL0mIwIymaXcJDnEfZH-3" value="open file với dạng đọc&lt;br&gt;cho chương trình đọc và in ra dữ liệu của tệp" style="rounded=0;whiteSpace=wrap;html=1;" vertex="1" parent="WIyWlLk6GJQsqaUBKTNV-1">
          <mxGeometry x="170" y="510" width="120" height="60" as="geometry" />
        </mxCell>
        <mxCell id="HJL0mIwIymaXcJDnEfZH-8" style="edgeStyle=orthogonalEdgeStyle;rounded=0;orthogonalLoop=1;jettySize=auto;html=1;exitX=0.5;exitY=1;exitDx=0;exitDy=0;" edge="1" parent="WIyWlLk6GJQsqaUBKTNV-1" source="HJL0mIwIymaXcJDnEfZH-5" target="HJL0mIwIymaXcJDnEfZH-7">
          <mxGeometry relative="1" as="geometry" />
        </mxCell>
        <mxCell id="HJL0mIwIymaXcJDnEfZH-5" value="Dữ liệu của&amp;nbsp;&lt;br&gt;tệp là:....." style="shape=parallelogram;perimeter=parallelogramPerimeter;whiteSpace=wrap;html=1;fixedSize=1;" vertex="1" parent="WIyWlLk6GJQsqaUBKTNV-1">
          <mxGeometry x="170" y="610" width="120" height="60" as="geometry" />
        </mxCell>
        <mxCell id="HJL0mIwIymaXcJDnEfZH-7" value="" style="ellipse;whiteSpace=wrap;html=1;" vertex="1" parent="WIyWlLk6GJQsqaUBKTNV-1">
          <mxGeometry x="170" y="720" width="120" height="80" as="geometry" />
        </mxCell>
      </root>
    </mxGraphModel>
  </diagram>
</mxfile>
